<svg width="178" height="30" viewBox="0 0 178 30" fill="none" xmlns="http://www.w3.org/2000/svg">
<path d="M60.0732 7.80132L61.4794 8.21105L56.2341 26.2136L54.5988 29.208L54.8279 25.8039L60.0732 7.80132Z" fill="white"/>
<mask id="path-2-inside-1_1_49" fill="white">
<path d="M54.5143 24.8532C54.3072 25.5639 56.1582 25.9161 55.5115 25.7277C54.8649 25.5393 53.9559 25.4615 54.163 24.7509C54.37 24.0402 55.2074 24.3639 55.854 24.5523C56.5006 24.7407 54.7214 24.1426 54.5143 24.8532Z"/>
</mask>
<path d="M54.5143 24.8532C54.3072 25.5639 56.1582 25.9161 55.5115 25.7277C54.8649 25.5393 53.9559 25.4615 54.163 24.7509C54.37 24.0402 55.2074 24.3639 55.854 24.5523C56.5006 24.7407 54.7214 24.1426 54.5143 24.8532Z" fill="white"/>
<path d="M53.5542 24.5735C53.3567 25.2514 53.7062 25.7713 53.9782 26.0347C54.2407 26.2888 54.5618 26.4511 54.7822 26.546C55.0139 26.6458 55.2379 26.7145 55.3825 26.7467C55.4048 26.7516 55.4869 26.7703 55.581 26.776C55.6062 26.7775 55.6695 26.7808 55.749 26.7726C55.7884 26.7686 55.8619 26.7589 55.9502 26.7309C56.0236 26.7077 56.208 26.6413 56.3754 26.4645C56.5861 26.2419 56.6902 25.9257 56.6345 25.6052C56.5903 25.3505 56.4611 25.1865 56.4078 25.1244C56.2977 24.9961 56.1805 24.928 56.1606 24.916C56.0509 24.8501 55.9384 24.814 55.9308 24.8114C55.888 24.7966 55.8405 24.782 55.7913 24.7676L55.2318 26.6878C55.2468 26.6921 55.2582 26.6956 55.2665 26.6982C55.275 26.7008 55.2787 26.7021 55.2784 26.702C55.2782 26.702 55.2763 26.7013 55.2728 26.7C55.2696 26.6988 55.2634 26.6965 55.2552 26.6932C55.2518 26.6918 55.1974 26.6705 55.1311 26.6307C55.1141 26.6205 54.9989 26.5538 54.8899 26.4268C54.8372 26.3653 54.7083 26.2019 54.6641 25.9477C54.6085 25.6277 54.7125 25.312 54.9228 25.0897C55.0898 24.9133 55.2737 24.8472 55.3462 24.8243C55.4338 24.7965 55.5063 24.787 55.5445 24.7831C55.6215 24.7752 55.6816 24.7784 55.7028 24.7797C55.7526 24.7827 55.7885 24.789 55.7953 24.7902C55.8079 24.7924 55.8154 24.7941 55.8163 24.7943C55.8182 24.7947 55.8112 24.7932 55.7952 24.7887C55.78 24.7844 55.7599 24.7784 55.7362 24.7706C55.688 24.7549 55.6311 24.7341 55.5733 24.7092C55.5147 24.6839 55.4633 24.658 55.4227 24.6337C55.3798 24.608 55.3655 24.5941 55.3692 24.5977C55.3726 24.601 55.5684 24.8104 55.4744 25.133L53.5542 24.5735ZM55.7913 24.7676C55.6146 24.7161 55.3758 24.6602 55.2502 24.6276C55.0862 24.585 54.9934 24.5539 54.9403 24.5291C54.8804 24.5011 54.9715 24.5269 55.0525 24.6617C55.0971 24.7359 55.1238 24.8195 55.131 24.9001C55.1378 24.976 55.1252 25.0234 55.123 25.0306L53.2029 24.4711C53.09 24.8586 53.1001 25.2955 53.3383 25.6919C53.5517 26.047 53.8716 26.2373 54.0939 26.3411C54.323 26.4482 54.5658 26.5162 54.7476 26.5634C54.9678 26.6206 55.0852 26.645 55.2318 26.6878L55.7913 24.7676ZM55.123 25.0306C55.1207 25.0388 55.1076 25.0783 55.0693 25.1295C55.0293 25.1831 54.976 25.2299 54.9163 25.2638C54.8056 25.3264 54.7361 25.3103 54.7942 25.3132C54.8483 25.3159 54.941 25.3311 55.09 25.3706C55.2496 25.4128 55.3755 25.4545 55.5743 25.5124L56.1337 23.5922C55.9012 23.5245 55.3622 23.3389 54.8931 23.3157C54.6351 23.3029 54.2771 23.3274 53.9309 23.5233C53.5533 23.7371 53.3162 24.0824 53.2029 24.4711L55.123 25.0306ZM55.5743 25.5124C55.6585 25.5369 55.7207 25.5538 55.7583 25.5628C55.7617 25.5637 55.7784 25.5677 55.799 25.5718C55.805 25.5729 55.816 25.5751 55.8299 25.5774C55.837 25.5786 55.8737 25.5849 55.9209 25.5883C55.9512 25.5901 56.0402 25.59 56.0989 25.5856C56.2523 25.5573 56.802 25.1812 56.9889 24.6991C56.9441 24.2768 56.639 23.8263 56.5403 23.753C56.4974 23.7266 56.4292 23.6903 56.4048 23.679C56.3651 23.6611 56.3328 23.6499 56.3257 23.6474C56.313 23.6429 56.3027 23.6396 56.297 23.6378C56.2854 23.6341 56.2759 23.6313 56.2713 23.63C56.2613 23.6271 56.2527 23.6247 56.2474 23.6233C56.2262 23.6176 56.2008 23.6113 56.174 23.6051C56.0668 23.58 55.8522 23.5356 55.5991 23.5114C55.3626 23.4889 55.0076 23.4751 54.6577 23.5632C54.3039 23.6523 53.7473 23.9108 53.5542 24.5735L55.4744 25.133C55.4365 25.2629 55.3561 25.3681 55.27 25.4348C55.2318 25.4643 55.1991 25.4814 55.1786 25.4905C55.1583 25.4996 55.1463 25.5026 55.1462 25.5026C55.1458 25.5027 55.1526 25.501 55.1678 25.4992C55.1829 25.4973 55.203 25.4957 55.2285 25.495C55.2804 25.4935 55.342 25.496 55.4094 25.5024C55.5463 25.5155 55.6682 25.5408 55.7192 25.5527C55.7319 25.5556 55.735 25.5566 55.7291 25.555C55.7276 25.5546 55.722 25.5531 55.7141 25.5508C55.7106 25.5498 55.7021 25.5473 55.691 25.5438C55.6857 25.5421 55.6757 25.5388 55.6632 25.5344C55.6563 25.532 55.6242 25.5209 55.5846 25.5031C55.5603 25.4917 55.4921 25.4555 55.4492 25.4291C55.3505 25.3558 55.0454 24.9054 55.0006 24.483C55.1875 24.0009 55.7372 23.6248 55.8906 23.5965C55.9492 23.5921 56.0383 23.592 56.0684 23.5938C56.1155 23.5973 56.1521 23.6035 56.1589 23.6047C56.1726 23.6069 56.1834 23.609 56.189 23.6102C56.2082 23.614 56.2226 23.6175 56.2229 23.6175C56.2348 23.6204 56.2111 23.6148 56.1337 23.5922L55.5743 25.5124Z" fill="white" mask="url(#path-2-inside-1_1_49)"/>
<path d="M60.1205 7.63907C60.2336 7.25074 60.6401 7.02766 61.0284 7.14081V7.14081C61.4168 7.25395 61.6398 7.66047 61.5267 8.0488L61.4794 8.21105L60.0732 7.80132L60.1205 7.63907Z" fill="#FFFEFE"/>
<path d="M62.3633 8.25823L63.7704 7.85148L69.9029 29.0664L68.344 27.9337L62.3633 8.25823Z" fill="white"/>
<path d="M62.3164 8.09587C62.2041 7.70731 62.428 7.30127 62.8166 7.18895V7.18895C63.2052 7.07662 63.6112 7.30056 63.7235 7.68913L63.7705 7.85148L62.3633 8.25823L62.3164 8.09587Z" fill="white"/>
<path d="M62.2531 12.4102L62.262 10.6195L63.227 12.128L67.7014 27.5684L66.6953 26.9301L62.2531 12.4102Z" fill="white"/>
<path d="M69.8874 16.2246C70.4507 17.3513 66.1015 21.1821 62.0567 21.1821C58.012 21.1821 55.0148 20.0218 55.0148 18.5906C57.0429 19.6047 58.012 20.2807 62.0567 20.2807C66.1015 20.2807 68.2536 17.1259 69.8874 16.2246Z" fill="white"/>
<circle cx="69.0986" cy="23.9989" r="0.901365" fill="white"/>
<path d="M66.8124 24.307L69.2529 23.4355L69.5181 24.1783L67.0776 25.0497L66.4265 24.9015L66.8124 24.307Z" fill="white"/>
<path d="M65.1571 6.08423C65.1571 8.1769 64.3834 10.253 61.7523 10.253C59.1213 10.253 58.2833 7.87406 58.8476 5.85889C59.2419 4.45051 59.1213 9.80963 61.7523 9.80963C64.3834 9.80963 64.8191 4.2815 65.1571 6.08423Z" fill="white"/>
<path d="M61.6629 0.728283C61.7185 0.33098 62.0935 0.0597633 62.4882 0.131502V0.131502C62.8807 0.202835 63.1361 0.584964 63.0519 0.974875L61.8565 6.51376C61.7999 6.77579 61.5457 6.94571 61.282 6.89777V6.89777C61.0198 6.85012 60.8419 6.60411 60.8788 6.34019L61.6629 0.728283Z" fill="white"/>
<path d="M16.075 18.375C16.075 17.3583 15.9417 16.6417 15.675 16.225C15.4083 15.8083 14.9 15.6 14.15 15.6C13.15 15.6 12.2583 16.0167 11.475 16.85C10.7083 17.6833 10.325 18.4333 10.325 19.1V28H8.575V18.375C8.575 17.3583 8.44167 16.6417 8.175 16.225C7.90833 15.8083 7.34167 15.6 6.475 15.6C5.60833 15.6 4.78333 16 4 16.8C3.23333 17.6 2.81667 18.3417 2.75 19.025V28H1V15.5H2.75V18.325C3.01667 17.6083 3.50833 16.9417 4.225 16.325C4.94167 15.7083 5.74167 15.4 6.625 15.4C7.50833 15.4 8.20833 15.4833 8.725 15.65C9.25833 15.8 9.63333 16.0417 9.85 16.375C10.0667 16.7083 10.2 17 10.25 17.25C10.3 17.5 10.325 17.85 10.325 18.3C10.5917 17.5833 11.075 16.925 11.775 16.325C12.475 15.7083 13.225 15.4 14.025 15.4C14.825 15.4 15.4667 15.4667 15.95 15.6C16.4333 15.7333 16.7917 15.8833 17.025 16.05C17.275 16.2167 17.4583 16.4583 17.575 16.775C17.7083 17.0917 17.7833 17.35 17.8 17.55C17.8167 17.75 17.825 18.0333 17.825 18.4V26.225C17.825 26.7083 17.9167 27.0833 18.1 27.35C18.3 27.6 18.5 27.7333 18.7 27.75L18.975 27.8H19.75V28H18.225C17.5417 28 17.0167 27.85 16.65 27.55C16.3 27.25 16.1167 26.95 16.1 26.65L16.075 26.225V18.375ZM20.5068 22.2C20.5068 20.0333 21.0318 18.3583 22.0818 17.175C23.1318 15.9917 24.7068 15.4 26.8068 15.4C27.7902 15.4 28.7818 15.65 29.7818 16.15V9.275H31.5318V26.225C31.5318 26.7083 31.6235 27.0833 31.8068 27.35C32.0068 27.6 32.2068 27.7333 32.4068 27.75L32.6818 27.8H33.4568V28H31.9318C31.2485 28 30.7235 27.85 30.3568 27.55C30.0068 27.25 29.8235 26.95 29.8068 26.65L29.7818 26.225V25.825C29.4652 26.4083 28.9402 26.925 28.2068 27.375C27.4735 27.825 26.6068 28.05 25.6068 28.05C22.2068 27.9667 20.5068 26.0167 20.5068 22.2ZM25.6318 27.85C26.7485 27.85 27.7068 27.55 28.5068 26.95C29.3068 26.35 29.7318 25.7583 29.7818 25.175V16.375C28.5985 15.8583 27.5818 15.6 26.7318 15.6C25.2485 15.6 24.1318 16.1833 23.3818 17.35C22.6318 18.5 22.2568 20.1167 22.2568 22.2C22.2568 25.9667 23.3818 27.85 25.6318 27.85ZM42.5041 16.375C42.2374 16.1583 41.8041 15.975 41.2041 15.825C40.6208 15.675 40.1791 15.6 39.8791 15.6C39.5791 15.6 39.4041 15.6 39.3541 15.6C38.4541 15.6167 37.8041 15.85 37.4041 16.3C37.0041 16.7333 36.8041 17.225 36.8041 17.775C36.8041 18.325 36.9791 18.7917 37.3291 19.175C37.6791 19.5417 38.1124 19.8333 38.6291 20.05C39.1624 20.25 39.7291 20.4833 40.3291 20.75C40.9458 21.0167 41.5124 21.2917 42.0291 21.575C42.5624 21.8417 43.0041 22.2417 43.3541 22.775C43.7041 23.2917 43.8791 23.9417 43.8791 24.725C43.8791 25.5083 43.6041 26.175 43.0541 26.725C42.5041 27.275 41.8874 27.6417 41.2041 27.825C40.5374 28.0083 39.8124 28.1 39.0291 28.1C37.3291 28.1 36.0541 27.725 35.2041 26.975L35.3541 26.825C35.6874 27.1417 36.1791 27.4 36.8291 27.6C37.4958 27.8 38.1374 27.9 38.7541 27.9C39.7374 27.9 40.5458 27.6333 41.1791 27.1C41.8291 26.55 42.1541 25.875 42.1541 25.075C42.1541 24.2583 41.9124 23.6083 41.4291 23.125C40.9458 22.625 40.3541 22.2417 39.6541 21.975C38.9708 21.6917 38.2791 21.4167 37.5791 21.15C36.8791 20.8667 36.2874 20.4833 35.8041 20C35.3208 19.5 35.0791 18.925 35.0791 18.275C35.0791 17.625 35.2291 17.1 35.5291 16.7C35.8291 16.2833 36.2291 15.9917 36.7291 15.825C37.5791 15.5417 38.4291 15.4 39.2791 15.4C40.7124 15.4 41.8291 15.6667 42.6291 16.2L42.5041 16.375ZM46.251 28.1C46.0343 28.1 45.8426 28.025 45.676 27.875C45.526 27.7083 45.451 27.5167 45.451 27.3C45.451 27.0667 45.526 26.875 45.676 26.725C45.826 26.575 46.0093 26.5 46.226 26.5C46.4593 26.5 46.651 26.5833 46.801 26.75C46.9676 26.9 47.051 27.0833 47.051 27.3C47.051 27.5167 46.9676 27.7083 46.801 27.875C46.651 28.025 46.4676 28.1 46.251 28.1Z" fill="white"/>
<path d="M81.172 28.112C77.6813 28.112 75.096 27.1227 73.416 25.144C72.8187 24.4347 72.3333 23.492 71.96 22.316C71.5867 21.14 71.4 19.712 71.4 18.032C71.4 16.352 71.6707 14.8493 72.212 13.524C72.772 12.18 73.528 11.144 74.48 10.416C76.328 9.05333 78.5587 8.372 81.172 8.372C81.9187 8.372 82.6467 8.43733 83.356 8.568C84.0653 8.68 84.5973 8.80133 84.952 8.932L85.456 9.128L85.372 9.408C84.1027 8.904 82.7027 8.652 81.172 8.652C79.1933 8.652 77.5413 9.296 76.216 10.584C75.208 11.536 74.4987 12.936 74.088 14.784C73.8453 15.8293 73.724 17.108 73.724 18.62C73.724 20.132 73.9387 21.532 74.368 22.82C74.7973 24.0893 75.2827 25.032 75.824 25.648C76.384 26.264 77.056 26.7587 77.84 27.132C78.624 27.4867 79.2493 27.692 79.716 27.748C80.1827 27.804 80.7427 27.832 81.396 27.832C82.068 27.832 82.824 27.7667 83.664 27.636C84.504 27.5053 85.1387 27.384 85.568 27.272L86.212 27.076L86.296 27.356C84.8773 27.86 83.1693 28.112 81.172 28.112ZM88.4573 28H88.1213L96.4933 8.4L96.8013 8.26L103.857 28H101.477L99.2933 21.84H91.1173L88.4573 28ZM95.6253 11.424L91.2293 21.56H99.2093L95.6253 11.424ZM108.626 8.428C109.447 8.39067 110.25 8.372 111.034 8.372C111.836 8.372 112.676 8.456 113.554 8.624C114.45 8.792 115.327 9.10933 116.186 9.576C117.063 10.024 117.8 10.612 118.398 11.34C119.014 12.0493 119.508 12.992 119.882 14.168C120.255 15.344 120.442 16.772 120.442 18.452C120.442 20.132 120.162 21.644 119.602 22.988C119.06 24.3133 118.314 25.3307 117.362 26.04C115.514 27.4213 113.283 28.112 110.67 28.112C109.755 28.112 108.794 28.0747 107.786 28H106.386V8.428H108.626ZM108.71 27.776C109.102 27.8133 109.596 27.832 110.194 27.832C110.791 27.832 111.239 27.8227 111.538 27.804C111.836 27.7853 112.247 27.7107 112.77 27.58C113.292 27.4307 113.778 27.2347 114.226 26.992C114.674 26.7493 115.14 26.3947 115.626 25.928C116.13 25.4427 116.559 24.8733 116.914 24.22C117.716 22.6893 118.118 20.692 118.118 18.228C118.118 16.4733 117.903 14.9613 117.474 13.692C117.044 12.404 116.55 11.452 115.99 10.836C115.448 10.22 114.786 9.73467 114.002 9.38C113.218 9.00667 112.592 8.792 112.126 8.736C111.659 8.68 111.118 8.652 110.502 8.652C109.886 8.652 109.288 8.68 108.71 8.736V27.776ZM134.674 8.4V8.68H125.854V17.08H134.03V17.36H125.854V27.72H135.29V28H123.53V8.4H134.674ZM138.465 28H138.101L140.537 8.4H141.461L147.341 26.516L153.193 8.4H154.117L156.553 28H154.229L152.297 12.32L147.229 28H145.465L140.341 12.516L138.465 28ZM172.064 8.4C172.418 8.75467 172.596 9.212 172.596 9.772C172.596 10.2387 172.493 10.7147 172.288 11.2L167.276 21.364V28H164.952V21.98L159.352 8.4H161.732L167.08 21.028L171.952 11.2C172.157 10.7333 172.26 10.248 172.26 9.744C172.26 9.24 172.12 8.848 171.84 8.568L172.064 8.4Z" fill="white"/>
<rect x="76" y="10" width="1" height="17" fill="white"/>
</svg>
