<?xml version="1.0" ?><svg style="enable-background:new 0 0 256 256;" version="1.1" viewBox="0 0 256 256" xml:space="preserve" xmlns="http://www.w3.org/2000/svg" xmlns:xlink="http://www.w3.org/1999/xlink"><style type="text/css">
	.st0{fill:#00A388;}
	.st1{fill:#EA685E;stroke:#00886F;stroke-width:15;stroke-miterlimit:10;}
	.st2{fill:#E8E8E8;}
	.st3{fill:#FFFFFF;stroke:#00886F;stroke-width:15;stroke-miterlimit:10;}
	.st4{fill:#00886F;}
	.st5{fill:#FFFFFF;}
	.st6{fill:#CCCCCC;}
	.st7{fill:none;stroke:#00A388;stroke-width:4;stroke-miterlimit:10;}
	.st8{fill:#EA685E;}
	.st9{fill:#FFAB80;}
	.st10{fill:#2C3E50;}
	.st11{fill:#4B687F;}
	.st12{fill:none;stroke:#3E5063;stroke-width:4;stroke-miterlimit:10;}
	.st13{fill:#FFD766;}
	.st14{fill:#FFE6D3;}
	.st15{fill:#F09A79;}
	.st16{fill:#C91E01;}
	.st17{fill:#EA3B28;}
	.st18{fill:#0F627F;}
	.st19{fill:#005670;}
	.st20{filter:url(#Adobe_OpacityMaskFilter);}
	.st21{mask:url(#SVGID_2_);}
	.st22{fill:#8C623B;}
	.st23{fill:#E6E6E6;stroke:#005670;stroke-width:16;stroke-miterlimit:10;}
	.st24{opacity:0.6;}
	.st25{fill:#E6E6E6;}
	.st26{fill:#FFEC82;}
	.st27{fill:#FFCF3A;}
	.st28{filter:url(#Adobe_OpacityMaskFilter_1_);}
	.st29{mask:url(#SVGID_1_);}
	.st30{fill:#603813;}
	.st31{fill:#F2F2F2;}
	.st32{fill:#666666;}
</style><g id="Layer_2"><circle class="st2" cx="128" cy="128" r="120"/></g><g id="Layer_1"><g><g><path class="st19" d="M163.119797,208.71846H92.880196c-4.075966,0-7.380196-3.30423-7.380196-7.380203V61.339298     c0-4.07597,3.30423-7.380199,7.380196-7.380199h70.239601c4.075974,0,7.380203,3.30423,7.380203,7.380199v139.998962     C170.5,205.41423,167.19577,208.71846,163.119797,208.71846z"/></g><g><path class="st18" d="M163.119797,202.040894H92.880196c-4.075966,0-7.380196-3.304214-7.380196-7.380188V54.661743     c0-4.075974,3.30423-7.380199,7.380196-7.380199h70.239601c4.075974,0,7.380203,3.304226,7.380203,7.380199v139.998962     C170.5,198.736679,167.19577,202.040894,163.119797,202.040894z"/></g><g><rect class="st5" height="123.751358" width="65.065475" x="95.467262" y="57.668854"/></g><g><g><path class="st5" d="M134.569901,53.95945h-13.139915c-0.61515,0-1.11293-0.497772-1.11293-1.112923      c0-0.615154,0.49778-1.112926,1.11293-1.112926h13.139915c0.615158,0,1.11293,0.497772,1.11293,1.112926      C135.682831,53.461678,135.185059,53.95945,134.569901,53.95945z"/></g></g><g><circle class="st5" cx="128" cy="191.831238" r="4.065509"/></g></g></g></svg>